<?xml version="1.0" encoding="UTF-8" standalone="no"?>
<svg
   xmlns:dc="http://purl.org/dc/elements/1.1/"
   xmlns:cc="http://creativecommons.org/ns#"
   xmlns:rdf="http://www.w3.org/1999/02/22-rdf-syntax-ns#"
   xmlns:svg="http://www.w3.org/2000/svg"
   xmlns="http://www.w3.org/2000/svg"
   xmlns:sodipodi="http://sodipodi.sourceforge.net/DTD/sodipodi-0.dtd"
   xmlns:inkscape="http://www.inkscape.org/namespaces/inkscape"
   width="60.630909mm"
   height="28.366943mm"
   viewBox="0 0 60.630909 28.366943"
   version="1.1"
   id="svg6526"
   inkscape:version="1.0.1 (3bc2e813f5, 2020-09-07)"
   sodipodi:docname="conventions_plane.svg"
   inkscape:export-filename="/home/afabisch/Projekte/pytransform3d/doc/source/_static/conventions_plane.png"
   inkscape:export-xdpi="300"
   inkscape:export-ydpi="300">
  <defs
     id="defs6520">
    <marker
       style="overflow:visible"
       id="Arrow1Send"
       refX="0"
       refY="0"
       orient="auto"
       inkscape:stockid="Arrow1Send"
       inkscape:isstock="true">
      <path
         transform="matrix(-0.2,0,0,-0.2,-1.2,0)"
         style="fill:#000000;fill-opacity:1;fill-rule:evenodd;stroke:#000000;stroke-width:1pt;stroke-opacity:1"
         d="M 0,0 5,-5 -12.5,0 5,5 Z"
         id="path1746" />
    </marker>
    <marker
       inkscape:stockid="Arrow2Lend"
       orient="auto"
       refY="0"
       refX="0"
       id="marker1088-5"
       style="overflow:visible"
       inkscape:isstock="true">
      <path
         inkscape:connector-curvature="0"
         id="path1086-6"
         style="fill:#0000ff;fill-opacity:1;fill-rule:evenodd;stroke:#0000ff;stroke-width:0.625;stroke-linejoin:round;stroke-opacity:1"
         d="M 8.7185878,4.0337352 -2.2072895,0.01601326 8.7185884,-4.0017078 c -1.7454984,2.3720609 -1.7354408,5.6174519 -6e-7,8.035443 z"
         transform="matrix(-1.1,0,0,-1.1,-1.1,0)" />
    </marker>
    <marker
       inkscape:stockid="Arrow2Lend"
       orient="auto"
       refY="0"
       refX="0"
       id="marker1088-5-1"
       style="overflow:visible"
       inkscape:isstock="true">
      <path
         inkscape:connector-curvature="0"
         id="path1086-6-2"
         style="fill:#00ff00;fill-opacity:1;fill-rule:evenodd;stroke:#00ff00;stroke-width:0.625;stroke-linejoin:round;stroke-opacity:1"
         d="M 8.7185878,4.0337352 -2.2072895,0.01601326 8.7185884,-4.0017078 c -1.7454984,2.3720609 -1.7354408,5.6174519 -6e-7,8.035443 z"
         transform="matrix(-1.1,0,0,-1.1,-1.1,0)" />
    </marker>
    <marker
       inkscape:stockid="Arrow2Lend"
       orient="auto"
       refY="0"
       refX="0"
       id="marker1088-5-1-3"
       style="overflow:visible"
       inkscape:isstock="true">
      <path
         inkscape:connector-curvature="0"
         id="path1086-6-2-1"
         style="fill:#ff0000;fill-opacity:1;fill-rule:evenodd;stroke:#ff0000;stroke-width:0.625;stroke-linejoin:round;stroke-opacity:1"
         d="M 8.7185878,4.0337352 -2.2072895,0.01601326 8.7185884,-4.0017078 c -1.7454984,2.3720609 -1.7354408,5.6174519 -6e-7,8.035443 z"
         transform="matrix(-1.1,0,0,-1.1,-1.1,0)" />
    </marker>
    <marker
       style="overflow:visible"
       id="marker5027"
       refX="0"
       refY="0"
       orient="auto"
       inkscape:stockid="Arrow1Sstart"
       inkscape:isstock="true">
      <path
         transform="matrix(0.2,0,0,0.2,1.2,0)"
         style="fill:#000000;fill-opacity:1;fill-rule:evenodd;stroke:#000000;stroke-width:1pt;stroke-opacity:1"
         d="M 0,0 5,-5 -12.5,0 5,5 Z"
         id="path5025" />
    </marker>
    <marker
       style="overflow:visible"
       id="Arrow1Send-4"
       refX="0"
       refY="0"
       orient="auto"
       inkscape:stockid="Arrow1Send"
       inkscape:isstock="true">
      <path
         transform="matrix(-0.2,0,0,-0.2,-1.2,0)"
         style="fill:#000000;fill-opacity:1;fill-rule:evenodd;stroke:#000000;stroke-width:1pt;stroke-opacity:1"
         d="M 0,0 5,-5 -12.5,0 5,5 Z"
         id="path1746-7" />
    </marker>
    <marker
       style="overflow:visible"
       id="Arrow1Send-4-4"
       refX="0"
       refY="0"
       orient="auto"
       inkscape:stockid="Arrow1Send"
       inkscape:isstock="true">
      <path
         transform="matrix(-0.2,0,0,-0.2,-1.2,0)"
         style="fill:#000000;fill-opacity:1;fill-rule:evenodd;stroke:#000000;stroke-width:1pt;stroke-opacity:1"
         d="M 0,0 5,-5 -12.5,0 5,5 Z"
         id="path1746-7-5" />
    </marker>
  </defs>
  <sodipodi:namedview
     id="base"
     pagecolor="#ffffff"
     bordercolor="#666666"
     borderopacity="1.0"
     inkscape:pageopacity="0.0"
     inkscape:pageshadow="2"
     inkscape:zoom="2.8"
     inkscape:cx="31.629428"
     inkscape:cy="37.631311"
     inkscape:document-units="mm"
     inkscape:current-layer="layer1"
     inkscape:document-rotation="0"
     showgrid="false"
     inkscape:window-width="1920"
     inkscape:window-height="1015"
     inkscape:window-x="0"
     inkscape:window-y="0"
     inkscape:window-maximized="1"
     fit-margin-top="0"
     fit-margin-left="0"
     fit-margin-right="0"
     fit-margin-bottom="0">
    <inkscape:grid
       type="xygrid"
       id="grid7142"
       originx="-95.360755"
       originy="-39.544805" />
  </sodipodi:namedview>
  <metadata
     id="metadata6523">
    <rdf:RDF>
      <cc:Work
         rdf:about="">
        <dc:format>image/svg+xml</dc:format>
        <dc:type
           rdf:resource="http://purl.org/dc/dcmitype/StillImage" />
        <dc:title />
      </cc:Work>
    </rdf:RDF>
  </metadata>
  <g
     inkscape:label="Layer 1"
     inkscape:groupmode="layer"
     id="layer1"
     transform="translate(-95.360754,-39.544806)">
    <g
       id="g7931"
       transform="translate(0.83820563,-0.48795151)">
      <path
         style="fill:none;stroke:#0000ff;stroke-width:0.264999;stroke-linecap:butt;stroke-linejoin:miter;stroke-miterlimit:4;stroke-dasharray:none;stroke-opacity:1;marker-end:url(#marker1088-5)"
         d="M 127,47.625 V 67.46875"
         id="path1084-2"
         sodipodi:nodetypes="cc" />
      <path
         style="fill:none;stroke:#00ff00;stroke-width:0.264999;stroke-linecap:butt;stroke-linejoin:miter;stroke-miterlimit:4;stroke-dasharray:none;stroke-opacity:1;marker-end:url(#marker1088-5-1)"
         d="m 127,47.625 -18.77314,1.650313"
         id="path1084-2-9"
         sodipodi:nodetypes="cc" />
      <path
         style="fill:none;stroke:#ff0000;stroke-width:0.264999;stroke-linecap:butt;stroke-linejoin:miter;stroke-miterlimit:4;stroke-dasharray:none;stroke-opacity:1;marker-end:url(#marker1088-5-1-3)"
         d="m 127,47.625 18.52083,6.614583"
         id="path1084-2-9-9"
         sodipodi:nodetypes="cc" />
      <path
         style="fill:none;stroke:#000000;stroke-width:0.25;stroke-linecap:butt;stroke-linejoin:miter;stroke-miterlimit:4;stroke-dasharray:none;stroke-opacity:1;marker-end:url(#Arrow1Send)"
         d="m 127.11678,60.759518 c 0,0 0.77308,0.231524 0.71834,0.522513 -0.0808,0.430006 -0.81309,0.40251 -1.26954,0.33362 -0.32088,-0.04842 -0.80033,-0.295625 -0.75328,-0.616705 0.0393,-0.26792 0.74978,-0.312627 0.74978,-0.312627"
         id="path2872"
         sodipodi:nodetypes="casac" />
      <path
         style="fill:none;stroke:#000000;stroke-width:0.25;stroke-linecap:butt;stroke-linejoin:miter;stroke-miterlimit:4;stroke-dasharray:none;stroke-opacity:1;marker-end:url(#Arrow1Send-4)"
         d="m 119.33813,48.398928 c 0,0 0.38335,0.710138 0.65721,0.59758 0.40472,-0.166245 0.22943,-0.877774 0.0695,-1.3108 -0.11242,-0.304419 -0.45164,-0.72384 -0.75653,-0.612714 -0.2544,0.09277 -0.15423,0.797569 -0.15423,0.797569"
         id="path2872-8"
         sodipodi:nodetypes="casac" />
      <path
         style="fill:none;stroke:#000000;stroke-width:0.25;stroke-linecap:butt;stroke-linejoin:miter;stroke-miterlimit:4;stroke-dasharray:none;stroke-opacity:1;marker-end:url(#Arrow1Send-4-4)"
         d="m 135.0745,50.697106 c 0,0 -0.0667,0.804239 0.22416,0.859524 0.42982,0.08178 0.67159,-0.609987 0.77413,-1.060071 0.0721,-0.316405 0.017,-0.853015 -0.29909,-0.926446 -0.26377,-0.06123 -0.5648,0.583872 -0.5648,0.583872"
         id="path2872-8-0"
         sodipodi:nodetypes="casac" />
      <text
         xml:space="preserve"
         style="font-style:normal;font-variant:normal;font-weight:normal;font-stretch:normal;font-size:4.9389px;line-height:1;font-family:'CMU Bright';-inkscape-font-specification:'CMU Bright';letter-spacing:0px;word-spacing:0px;fill:#000000;fill-opacity:1;stroke:none;stroke-width:0.264583"
         x="107.90042"
         y="64.20092"
         id="text6347-3-0-6-6"><tspan
           sodipodi:role="line"
           id="tspan6345-6-9-2-1"
           x="107.90042"
           y="64.20092"
           style="stroke-width:0.264583">heading</tspan></text>
      <text
         xml:space="preserve"
         style="font-style:normal;font-variant:normal;font-weight:normal;font-stretch:normal;font-size:4.9389px;line-height:1;font-family:'CMU Bright';-inkscape-font-specification:'CMU Bright';letter-spacing:0px;word-spacing:0px;fill:#000000;fill-opacity:1;stroke:none;stroke-width:0.264583"
         x="103.68639"
         y="55.118694"
         id="text6347-3-0-6-6-3"><tspan
           sodipodi:role="line"
           id="tspan6345-6-9-2-1-6"
           x="103.68639"
           y="55.118694"
           style="stroke-width:0.264583">elevation</tspan></text>
      <text
         xml:space="preserve"
         style="font-style:normal;font-variant:normal;font-weight:normal;font-stretch:normal;font-size:4.9389px;line-height:1;font-family:'CMU Bright';-inkscape-font-specification:'CMU Bright';letter-spacing:0px;word-spacing:0px;fill:#000000;fill-opacity:1;stroke:none;stroke-width:0.264583"
         x="138.9175"
         y="46.473068"
         id="text6347-3-0-6-6-3-1"><tspan
           sodipodi:role="line"
           id="tspan6345-6-9-2-1-6-0"
           x="138.9175"
           y="46.473068"
           style="stroke-width:0.264583">bank</tspan></text>
    </g>
    <path
       style="fill:none;stroke:#000000;stroke-width:0.264583px;stroke-linecap:butt;stroke-linejoin:miter;stroke-opacity:1;opacity:0.5"
       d="m 117.70053,47.937451 v 0 c 0,0 -14.71393,-1.865122 -20.676186,-3.236595 -0.608066,-0.139871 -0.818093,-1.306084 -1.002397,-1.901023 -0.05227,-0.168743 -0.570812,-0.224159 -0.527313,-0.05294 0.318585,1.253987 0.318585,1.253987 0.318585,1.253987 0,0 0.276078,0.849317 0.644956,0.936648 9.469825,2.241971 15.897285,2.787074 23.762405,4.57807 1.1755,0.267677 3.49756,0.920933 3.49756,0.920933 l 4.67761,1.245989 10.93209,5.521777 c 0,0 3.42967,1.632649 5.21494,2.271152 1.85182,0.662307 3.73863,1.273271 5.67645,1.609034 1.12016,0.194088 2.28149,0.414644 3.40292,0.228055 0.52818,-0.08788 1.08965,-0.255808 1.48161,-0.620598 0.37647,-0.350376 0.58681,-0.874227 0.69658,-1.376664 0.10568,-0.483722 0.0581,-1.0027 -0.0568,-1.484308 -0.26222,-1.098846 -0.88497,-2.081831 -1.41361,-3.080213 -0.52392,-0.989476 -1.02813,-2.008323 -1.73747,-2.874578 -0.67223,-0.820938 -1.44709,-1.587687 -2.34593,-2.151531 -1.74748,-1.096199 -3.76958,-1.711723 -5.75096,-2.285717 -5.27413,-1.527883 -16.18991,-3.040568 -16.18991,-3.040568 l 4.91385,0.865275 5.38455,-2.941796 0.1972,-0.398659 -0.0477,-0.597773 -0.33307,-0.780777 0.25217,-0.07197 0.23766,0.06713 0.6133,0.801123 0.27255,0.560729 0.0441,0.351147 -0.1597,0.344644 -3.8593,3.220689"
       id="path8005"
       sodipodi:nodetypes="ccssscsacccaaaaaaaaaaccccccccccccc" />
    <path
       style="fill:none;stroke:#000000;stroke-width:0.264583px;stroke-linecap:butt;stroke-linejoin:miter;stroke-opacity:1;opacity:0.5"
       d="m 117.70053,47.937451 c 0,0 0.77355,-0.04421 0.58017,-0.03315 -0.58017,0.03315 -0.435,-0.826667 -0.73463,-0.856962 -1.05536,-0.106705 -1.70998,-0.279005 -2.46793,-0.668805 -0.57804,-0.297269 -1.50966,-1.234253 -1.50966,-1.234253 l -2.89701,-4.773174 0.22011,-0.04782 c 0,0 2.03427,3.837204 3.66743,5.183587 0.34671,0.285831 0.80471,0.405728 1.22875,0.554397 0.47057,0.164982 1.44923,0.370949 1.44923,0.370949 0,0 0.0635,-0.431326 0.18946,-0.598411 0.16932,-0.224648 0.43161,-0.393507 0.70329,-0.46649 0.26431,-0.071 0.55077,-0.0018 0.81954,0.04988 0.19522,0.03752 0.37818,0.122778 0.5663,0.187037 0.10685,0.0365 0.2086,0.134356 0.31942,0.112742 0.0791,-0.01542 0.14976,-0.08587 0.18092,-0.160137 0.0683,-0.162651 -0.086,-0.362124 -0.0273,-0.528471 0.0626,-0.177547 0.23041,-0.302284 0.37658,-0.420944 0.40595,-0.329554 0.86856,-0.602197 1.35908,-0.783275 0.50457,-0.186262 1.0488,-0.273424 1.58618,-0.295913 0.34053,-0.01425 0.67977,0.05553 1.01729,0.102876 0.9212,0.129217 2.74658,0.493948 2.74658,0.493948 0,0 0.34975,-2.669366 0.66944,-4.379426 0.0215,-0.114826 0.23788,-0.05759 0.34965,-0.02363 0.0998,0.03032 0.24095,0.08714 0.24772,0.191233 0.0873,1.342327 -0.0355,4.485118 -0.0355,4.485118"
       id="path8007"
       sodipodi:nodetypes="cssacccaacaaaaaaaaaaacsasc" />
    <path
       style="fill:none;stroke:#000000;stroke-width:0.264583px;stroke-linecap:butt;stroke-linejoin:miter;stroke-opacity:1;opacity:0.5"
       d="m 146.36378,52.67525 c 0,0 0.80039,0.920176 1.79791,1.482902 0.99753,0.562729 3.50361,1.495323 4.17364,1.533586 1.17616,0.06717 1.87579,-0.0799 1.91401,-0.412504 0.0473,-0.33038 -1.37208,-3.091119 -1.37208,-3.091119 0,0 0.15835,0.589544 -0.8018,0.969108 -0.96014,0.37956 -2.41541,0.324214 -3.46761,0.02072 -1.05219,-0.303493 -2.24407,-0.502694 -2.24407,-0.502693 z"
       id="path8083"
       sodipodi:nodetypes="cssccssc" />
    <path
       style="fill:none;stroke:#000000;stroke-width:0.264583px;stroke-linecap:butt;stroke-linejoin:miter;stroke-opacity:1;opacity:0.5"
       d="m 118.86499,49.231649 c 0,0 0.37602,0.536235 0.56194,0.688767 0.18592,0.152532 0.50644,0.31383 0.82742,0.417489 0.5771,0.03387 1.00404,-0.163811 1.56395,-0.358879"
       id="path8085"
       sodipodi:nodetypes="cscc" />
    <path
       style="fill:none;stroke:#000000;stroke-width:0.264583px;stroke-linecap:butt;stroke-linejoin:miter;stroke-opacity:1;opacity:0.5"
       d="m 119.82254,49.469933 c 0,0 0.0238,0.488996 0.0768,0.59312 0.053,0.104121 0.13671,0.159083 0.13671,0.159083"
       id="path8087"
       sodipodi:nodetypes="csc" />
  </g>
</svg>
