<svg width="1280" height="720" xmlns="http://www.w3.org/2000/svg" xmlns:xlink="http://www.w3.org/1999/xlink" overflow="hidden"><defs><clipPath id="clip0"><rect x="0" y="0" width="1280" height="720"/></clipPath></defs><g clip-path="url(#clip0)"><rect x="0" y="0" width="1280" height="720" fill="#FFFFFF"/><path d="M314.5 617.833 1198.76 617.833 1198.76 619.167 314.5 619.167ZM1197.43 614.5 1205.43 618.5 1197.43 622.5Z"/><path d="M1174.97 645.334 1178.54 645.334 1177.11 651.727 1184.98 651.727 1184.41 654.34 1176.54 654.34 1174.24 664.381C1173.79 666.331 1173.51 667.733 1173.39 668.587 1173.27 669.441 1173.21 670.126 1173.21 670.644 1173.21 672.783 1174.09 673.853 1175.87 673.853 1176.63 673.853 1177.44 673.564 1178.29 672.986 1179.14 672.408 1180.16 671.42 1181.33 670.023L1182.83 671.576C1181.33 673.387 1179.89 674.724 1178.5 675.587 1177.11 676.45 1175.66 676.881 1174.14 676.881 1170.53 676.881 1168.73 675.061 1168.73 671.42 1168.73 670.264 1168.88 669.048 1169.17 667.771L1172.22 654.34 1167.87 654.34 1168.26 652.555C1169.28 652.537 1170.05 652.46 1170.58 652.322 1171.1 652.184 1171.54 651.994 1171.9 651.752 1172.25 651.511 1172.58 651.166 1172.87 650.717 1173.16 650.269 1173.45 649.695 1173.72 648.996 1174 648.298 1174.41 647.077 1174.97 645.334Z" fill-rule="evenodd"/><text fill="#000000" fill-opacity="0" font-family="Arial,Arial_MSFontService,sans-serif" font-size="31.5464" x="1167.87" y="672.938">𝑡</text><path d="M314.5 437.5 1205.43 437.5" stroke="#000000" stroke-width="0.666667" stroke-miterlimit="8" stroke-dasharray="2.66667 2" fill="none" fill-rule="evenodd"/><path d="M0 0 882.578 0.000104987" stroke="#000000" stroke-width="0.666667" stroke-miterlimit="8" stroke-dasharray="2.66667 2" fill="none" fill-rule="evenodd" transform="matrix(1 0 0 -1 314.5 202.5)"/><path d="M347.5 202.5C347.5 192.007 356.007 183.5 366.5 183.5 376.993 183.5 385.5 192.007 385.5 202.5 385.5 212.993 376.993 221.5 366.5 221.5 356.007 221.5 347.5 212.993 347.5 202.5Z" stroke="#000000" stroke-width="1.33333" stroke-miterlimit="8" fill="#A9D18E" fill-rule="evenodd"/><path d="M453.5 202.5C453.5 192.007 462.007 183.5 472.5 183.5 482.993 183.5 491.5 192.007 491.5 202.5 491.5 212.993 482.993 221.5 472.5 221.5 462.007 221.5 453.5 212.993 453.5 202.5Z" stroke="#000000" stroke-width="1.33333" stroke-miterlimit="8" fill="#A9D18E" fill-rule="evenodd"/><path d="M559.5 202.5C559.5 192.007 567.783 183.5 578 183.5 588.217 183.5 596.5 192.007 596.5 202.5 596.5 212.993 588.217 221.5 578 221.5 567.783 221.5 559.5 212.993 559.5 202.5Z" stroke="#000000" stroke-width="1.33333" stroke-miterlimit="8" fill="#A9D18E" fill-rule="evenodd"/><path d="M664.5 202.5C664.5 192.007 673.007 183.5 683.5 183.5 693.993 183.5 702.5 192.007 702.5 202.5 702.5 212.993 693.993 221.5 683.5 221.5 673.007 221.5 664.5 212.993 664.5 202.5Z" stroke="#000000" stroke-width="1.33333" stroke-miterlimit="8" fill="#A9D18E" fill-rule="evenodd"/><path d="M770.5 202.5C770.5 192.007 779.007 183.5 789.5 183.5 799.993 183.5 808.5 192.007 808.5 202.5 808.5 212.993 799.993 221.5 789.5 221.5 779.007 221.5 770.5 212.993 770.5 202.5Z" stroke="#000000" stroke-width="1.33333" stroke-miterlimit="8" fill="#A9D18E" fill-rule="evenodd"/><path d="M876.5 202.5C876.5 192.007 884.783 183.5 895 183.5 905.217 183.5 913.5 192.007 913.5 202.5 913.5 212.993 905.217 221.5 895 221.5 884.783 221.5 876.5 212.993 876.5 202.5Z" stroke="#000000" stroke-width="1.33333" stroke-miterlimit="8" fill="#A9D18E" fill-rule="evenodd"/><path d="M986.5 202.5C986.5 192.007 995.007 183.5 1005.5 183.5 1015.99 183.5 1024.5 192.007 1024.5 202.5 1024.5 212.993 1015.99 221.5 1005.5 221.5 995.007 221.5 986.5 212.993 986.5 202.5Z" stroke="#000000" stroke-width="1.33333" stroke-miterlimit="8" fill="#A9D18E" fill-rule="evenodd"/><path d="M1091.5 202.5C1091.5 192.007 1100.01 183.5 1110.5 183.5 1120.99 183.5 1129.5 192.007 1129.5 202.5 1129.5 212.993 1120.99 221.5 1110.5 221.5 1100.01 221.5 1091.5 212.993 1091.5 202.5Z" stroke="#000000" stroke-width="1.33333" stroke-miterlimit="8" fill="#A9D18E" fill-rule="evenodd"/><path d="M396.5 437.5C396.5 427.007 404.783 418.5 415 418.5 425.217 418.5 433.5 427.007 433.5 437.5 433.5 447.993 425.217 456.5 415 456.5 404.783 456.5 396.5 447.993 396.5 437.5Z" stroke="#000000" stroke-width="1.33333" stroke-miterlimit="8" fill="#F4B183" fill-rule="evenodd"/><path d="M501.5 437.5C501.5 427.007 510.007 418.5 520.5 418.5 530.993 418.5 539.5 427.007 539.5 437.5 539.5 447.993 530.993 456.5 520.5 456.5 510.007 456.5 501.5 447.993 501.5 437.5Z" stroke="#000000" stroke-width="1.33333" stroke-miterlimit="8" fill="#F4B183" fill-rule="evenodd"/><path d="M607.5 437.5C607.5 427.007 616.007 418.5 626.5 418.5 636.993 418.5 645.5 427.007 645.5 437.5 645.5 447.993 636.993 456.5 626.5 456.5 616.007 456.5 607.5 447.993 607.5 437.5Z" stroke="#000000" stroke-width="1.33333" stroke-miterlimit="8" fill="#F4B183" fill-rule="evenodd"/><path d="M712.5 437.5C712.5 427.007 721.007 418.5 731.5 418.5 741.993 418.5 750.5 427.007 750.5 437.5 750.5 447.993 741.993 456.5 731.5 456.5 721.007 456.5 712.5 447.993 712.5 437.5Z" stroke="#000000" stroke-width="1.33333" stroke-miterlimit="8" fill="#F4B183" fill-rule="evenodd"/><path d="M818.5 437.5C818.5 427.007 827.007 418.5 837.5 418.5 847.993 418.5 856.5 427.007 856.5 437.5 856.5 447.993 847.993 456.5 837.5 456.5 827.007 456.5 818.5 447.993 818.5 437.5Z" stroke="#000000" stroke-width="1.33333" stroke-miterlimit="8" fill="#F4B183" fill-rule="evenodd"/><path d="M924.5 437.5C924.5 427.007 933.007 418.5 943.5 418.5 953.993 418.5 962.5 427.007 962.5 437.5 962.5 447.993 953.993 456.5 943.5 456.5 933.007 456.5 924.5 447.993 924.5 437.5Z" stroke="#000000" stroke-width="1.33333" stroke-miterlimit="8" fill="#F4B183" fill-rule="evenodd"/><path d="M1034.5 437.5C1034.5 427.007 1043.01 418.5 1053.5 418.5 1063.99 418.5 1072.5 427.007 1072.5 437.5 1072.5 447.993 1063.99 456.5 1053.5 456.5 1043.01 456.5 1034.5 447.993 1034.5 437.5Z" stroke="#000000" stroke-width="1.33333" stroke-miterlimit="8" fill="#F4B183" fill-rule="evenodd"/><path d="M1140.5 437.5C1140.5 427.007 1149.01 418.5 1159.5 418.5 1169.99 418.5 1178.5 427.007 1178.5 437.5 1178.5 447.993 1169.99 456.5 1159.5 456.5 1149.01 456.5 1140.5 447.993 1140.5 437.5Z" stroke="#000000" stroke-width="1.33333" stroke-miterlimit="8" fill="#F4B183" fill-rule="evenodd"/><text fill="#70AD47" font-family="Cambria Math,Cambria Math_MSFontService,sans-serif" font-weight="400" font-size="48" transform="translate(241.913 219)">𝑇</text><text fill="#70AD47" font-family="Cambria Math,Cambria Math_MSFontService,sans-serif" font-weight="400" font-size="35" transform="translate(217.14 229)">𝐵</text><text fill="#70AD47" font-family="Cambria Math,Cambria Math_MSFontService,sans-serif" font-weight="400" font-size="35" transform="translate(218.407 200)">𝐴</text><text fill="#ED7D31" font-family="Cambria Math,Cambria Math_MSFontService,sans-serif" font-weight="400" font-size="48" transform="translate(241.913 455)">𝑇</text><text fill="#ED7D31" font-family="Cambria Math,Cambria Math_MSFontService,sans-serif" font-weight="400" font-size="35" transform="translate(219.207 465)">𝐶</text><text fill="#ED7D31" font-family="Cambria Math,Cambria Math_MSFontService,sans-serif" font-weight="400" font-size="35" transform="translate(217.14 436)">𝐵</text><path d="M731.5 89.5001 731.5 673.763" stroke="#FF0000" stroke-width="3" stroke-miterlimit="8" stroke-dasharray="24 9" fill="none" fill-rule="evenodd"/><text fill="#FF0000" font-family="Cambria Math,Cambria Math_MSFontService,sans-serif" font-weight="400" font-size="37" transform="translate(746.702 678)">𝑡</text><text fill="#FF0000" font-family="Cambria Math,Cambria Math_MSFontService,sans-serif" font-weight="400" font-size="27" transform="translate(760.822 685)">𝑞</text><path d="M782.313 84.6909 806.782 84.6909 804.953 92.9409 802.703 92.9409C802.703 91.4252 802.664 90.2885 802.586 89.5307 802.508 88.7729 802.36 88.1948 802.141 87.7963 801.922 87.3979 801.653 87.1245 801.332 86.976 801.012 86.8276 800.446 86.7534 799.633 86.7534L796.164 86.7534 791.078 109.863C790.938 110.472 790.84 110.956 790.786 111.316 790.731 111.675 790.684 112.054 790.645 112.453 790.606 112.851 790.586 113.206 790.586 113.519 790.586 114.003 790.664 114.382 790.821 114.656 790.977 114.929 791.211 115.128 791.524 115.253 791.836 115.378 792.375 115.472 793.141 115.535L792.883 116.683 783.016 116.683 783.274 115.535C783.899 115.441 784.36 115.316 784.657 115.16 784.953 115.003 785.215 114.761 785.442 114.433 785.668 114.105 785.895 113.589 786.121 112.886 786.348 112.183 786.618 111.121 786.93 109.699L791.946 86.7534 788.969 86.7534C788 86.7534 787.227 86.894 786.649 87.1752 786.071 87.4565 785.493 87.9799 784.914 88.7455 784.336 89.5112 783.633 90.7924 782.805 92.5893L780.555 92.5893Z" fill="#FF0000" fill-rule="evenodd"/><text fill="#000000" fill-opacity="0" font-family="Arial,Arial_MSFontService,sans-serif" font-size="31.9922" x="780.555" y="112.684">𝑇</text><path d="M770.82 105.079C771.332 105.079 771.828 105.094 772.306 105.122 772.785 105.151 773.275 105.202 773.776 105.276 774.277 105.35 774.787 105.45 775.306 105.575 775.824 105.7 776.379 105.86 776.972 106.054L775.947 110.634 774.152 110.634C774.095 109.973 773.993 109.403 773.844 108.925 773.696 108.446 773.486 108.053 773.212 107.745 772.939 107.438 772.588 107.213 772.161 107.07 771.734 106.928 771.213 106.857 770.597 106.857 769.766 106.857 768.974 107.062 768.222 107.472 767.47 107.882 766.781 108.44 766.154 109.147 765.527 109.853 764.966 110.682 764.471 111.633 763.975 112.585 763.551 113.593 763.198 114.658 762.844 115.724 762.577 116.82 762.394 117.948 762.212 119.076 762.121 120.176 762.121 121.246 762.121 122.967 762.443 124.214 763.086 124.989 763.73 125.764 764.719 126.151 766.052 126.151 766.724 126.151 767.336 126.077 767.889 125.929 768.441 125.781 768.954 125.547 769.427 125.228 769.9 124.909 770.333 124.496 770.726 123.989 771.119 123.482 771.486 122.876 771.828 122.169L773.708 122.169 772.614 126.937C771.999 127.12 771.406 127.273 770.837 127.399 770.267 127.524 769.709 127.627 769.162 127.706 768.615 127.786 768.074 127.846 767.538 127.886 767.003 127.926 766.462 127.946 765.915 127.946 764.73 127.946 763.679 127.775 762.762 127.433 761.845 127.091 761.078 126.604 760.463 125.972 759.848 125.339 759.381 124.565 759.062 123.648 758.743 122.73 758.583 121.702 758.583 120.563 758.583 119.07 758.734 117.649 759.036 116.299 759.338 114.949 759.76 113.701 760.301 112.556 760.842 111.411 761.491 110.377 762.249 109.454 763.007 108.532 763.838 107.745 764.744 107.096 765.65 106.447 766.615 105.948 767.641 105.601 768.666 105.253 769.726 105.079 770.82 105.079Z" fill="#FF0000" fill-rule="evenodd"/><text fill="#000000" fill-opacity="0" font-family="Arial,Arial_MSFontService,sans-serif" font-size="22.8662" x="758.583" y="125.087">𝐶</text><path d="M770.413 79.3097C769.421 80.9275 768.439 82.5482 767.465 84.1717 766.491 85.7953 765.508 87.4216 764.517 89.0509L771.096 89.0509C771.039 88.3217 770.982 87.6068 770.925 86.9061 770.868 86.2054 770.823 85.4677 770.789 84.693 770.754 83.9182 770.723 83.0922 770.695 82.2149 770.666 81.3377 770.652 80.3692 770.652 79.3097ZM770.344 75.567 773.164 75.567 774.719 93.631C774.765 94.212 774.836 94.7019 774.933 95.1007 775.03 95.4995 775.164 95.8298 775.335 96.0919 775.505 96.3539 775.719 96.5533 775.975 96.69 776.232 96.8268 776.554 96.9236 776.941 96.9806L776.685 98.023 769.233 98.023 769.49 96.9806C769.809 96.9236 770.091 96.8524 770.336 96.7669 770.581 96.6815 770.783 96.5391 770.942 96.3397 771.102 96.1403 771.224 95.8697 771.31 95.5279 771.395 95.1861 771.438 94.7418 771.438 94.1949 771.438 93.9898 771.432 93.7534 771.421 93.4857 771.41 93.218 771.395 92.936 771.378 92.6397 771.361 92.3435 771.338 92.0388 771.31 91.7254 771.281 91.4121 771.256 91.1074 771.233 90.8111L763.577 90.8111C763.315 91.1985 763.055 91.5973 762.799 92.0074 762.543 92.4176 762.309 92.8192 762.098 93.2123 761.888 93.6053 761.72 93.9955 761.594 94.3829 761.469 94.7703 761.406 95.152 761.406 95.5279 761.406 96.3596 762.016 96.8438 763.235 96.9806L763.013 98.023 755.544 98.023 755.732 96.9806C756.04 96.9236 756.316 96.8353 756.561 96.7157 756.806 96.596 757.063 96.4081 757.33 96.1517 757.598 95.8954 757.889 95.5479 758.202 95.1092 758.515 94.6706 758.894 94.0924 759.338 93.3746Z" fill="#FF0000" fill-rule="evenodd"/><text fill="#000000" fill-opacity="0" font-family="Arial,Arial_MSFontService,sans-serif" font-size="22.4561" x="755.544" y="95.216">𝐴</text><path d="M874.49 73.9733C879.365 75.2545 883.123 78.5748 885.764 83.9342 888.405 89.2936 889.725 95.6373 889.725 102.965 889.725 110.294 888.405 116.637 885.764 121.997 883.123 127.356 879.365 130.676 874.49 131.958L873.905 130.036C877.686 128.614 880.549 125.516 882.494 120.743 884.44 115.969 885.412 110.051 885.412 102.989 885.412 95.9108 884.44 89.9811 882.494 85.1998 880.549 80.4186 877.686 77.317 873.905 75.8951ZM827.921 73.9733 828.507 75.8951C824.726 77.317 821.862 80.4186 819.917 85.1998 817.972 89.9811 816.999 95.9108 816.999 102.989 816.999 110.051 817.972 115.969 819.917 120.743 821.862 125.516 824.726 128.614 828.507 130.036L827.921 131.958C823.046 130.676 819.288 127.356 816.647 121.997 814.007 116.637 812.687 110.294 812.687 102.965 812.687 95.6373 814.007 89.2936 816.647 83.9342 819.288 78.5748 823.046 75.2545 827.921 73.9733Z" fill="#FF0000" fill-rule="evenodd"/><path d="M839.192 88.4877 842.426 88.4877 841.137 94.2768 848.262 94.2768 847.747 96.644 840.622 96.644 838.536 105.738C838.129 107.503 837.872 108.773 837.762 109.546 837.653 110.32 837.598 110.941 837.598 111.41 837.598 113.347 838.403 114.316 840.012 114.316 840.7 114.316 841.43 114.054 842.204 113.531 842.977 113.007 843.895 112.113 844.957 110.847L846.317 112.253C844.957 113.894 843.649 115.105 842.391 115.886 841.133 116.667 839.817 117.058 838.442 117.058 835.176 117.058 833.543 115.41 833.543 112.113 833.543 111.066 833.676 109.964 833.942 108.808L836.707 96.644 832.77 96.644 833.122 95.0268C834.043 95.0112 834.743 94.9409 835.219 94.8159 835.696 94.6909 836.094 94.519 836.414 94.3002 836.735 94.0815 837.028 93.769 837.293 93.3627 837.559 92.9565 837.817 92.437 838.067 91.8041 838.317 91.1713 838.692 90.0659 839.192 88.4877Z" fill="#FF0000" fill-rule="evenodd"/><text fill="#000000" fill-opacity="0" font-family="Arial,Arial_MSFontService,sans-serif" font-size="28.5703" x="832.77" y="113.487">𝑡</text><path d="M860.376 110.726C859.704 110.726 859.08 110.871 858.505 111.162 857.929 111.453 857.402 111.851 856.924 112.358 856.445 112.865 856.018 113.452 855.642 114.119 855.266 114.785 854.95 115.497 854.694 116.255 854.437 117.012 854.244 117.787 854.113 118.579 853.982 119.371 853.916 120.143 853.916 120.895 853.916 122.125 854.09 123.039 854.437 123.638 854.785 124.236 855.346 124.535 856.121 124.535 856.656 124.535 857.24 124.35 857.872 123.979 858.505 123.609 859.12 123.088 859.718 122.416 860.316 121.743 860.86 120.932 861.35 119.98 861.84 119.029 862.21 117.972 862.461 116.81 862.609 116.195 862.734 115.577 862.837 114.956 862.94 114.335 862.991 113.774 862.991 113.273 862.991 112.35 862.783 111.695 862.367 111.307 861.951 110.92 861.288 110.726 860.376 110.726ZM860.068 109.034C860.934 109.034 861.712 109.14 862.401 109.35 863.091 109.561 863.726 109.849 864.307 110.214L865.93 109.034 867.315 109.393C866.563 112.777 865.819 116.127 865.084 119.442 864.349 122.757 863.663 125.879 863.025 128.807 862.809 129.593 862.7 130.231 862.7 130.721 862.7 131.143 862.86 131.442 863.179 131.619 863.498 131.795 864.045 131.918 864.819 131.986L864.58 133.114 858.718 133.114C859.197 131.245 859.644 129.511 860.06 127.91 860.476 126.309 860.929 124.575 861.419 122.706L861.145 122.638C860.576 123.378 860.02 124.011 859.479 124.535 858.938 125.059 858.408 125.489 857.89 125.825 857.371 126.161 856.853 126.406 856.334 126.56 855.816 126.714 855.295 126.791 854.771 126.791 853.415 126.791 852.367 126.304 851.626 125.329 850.886 124.355 850.515 122.94 850.515 121.083 850.515 119.978 850.632 118.915 850.866 117.895 851.099 116.876 851.43 115.919 851.857 115.024 852.284 114.13 852.794 113.315 853.386 112.58 853.979 111.846 854.628 111.216 855.335 110.692 856.041 110.168 856.793 109.761 857.59 109.47 858.388 109.18 859.214 109.034 860.068 109.034Z" fill="#FF0000" fill-rule="evenodd"/><text fill="#000000" fill-opacity="0" font-family="Arial,Arial_MSFontService,sans-serif" font-size="24.0796" x="850.515" y="130.104">𝑞</text><rect x="34.5001" y="67.5001" width="150" height="66" stroke="#000000" stroke-width="1.33333" stroke-miterlimit="8" fill="none"/><text font-family="Cambria Math,Cambria Math_MSFontService,sans-serif" font-weight="400" font-size="24" transform="translate(98.7333 108)">𝐴</text><rect x="34.5001" y="297.5" width="150" height="62" stroke="#000000" stroke-width="1.33333" stroke-miterlimit="8" fill="none"/><text font-family="Cambria Math,Cambria Math_MSFontService,sans-serif" font-weight="400" font-size="24" transform="translate(98.1931 336)">𝐵</text><rect x="34.5001" y="523.5" width="150" height="66" stroke="#000000" stroke-width="1.33333" stroke-miterlimit="8" fill="none"/><text font-family="Cambria Math,Cambria Math_MSFontService,sans-serif" font-weight="400" font-size="24" transform="translate(98.2658 565)">𝐶</text><path d="M2-1.28213e-06 2.0001 153.769-1.9999 153.769-2 1.28213e-06ZM6.0001 151.769 0.000104987 163.769-5.9999 151.769Z" fill="#70AD47" transform="matrix(-1 0 0 1 109 133)"/><path d="M1.99999-0.0057888 2.44506 153.763-1.55492 153.775-1.99999 0.0057888ZM6.43926 151.752 0.474016 163.769-5.56069 151.787Z" fill="#ED7D31" transform="matrix(-1 0 0 1 109.474 359)"/></g></svg>