<?xml version="1.0" encoding="UTF-8" standalone="no"?>
<!-- Created with Inkscape (http://www.inkscape.org/) -->

<svg
   width="115.74403mm"
   height="107.4909mm"
   viewBox="0 0 115.74403 107.4909"
   version="1.1"
   id="svg5"
   inkscape:version="1.1.2 (0a00cf5339, 2022-02-04)"
   sodipodi:docname="transform_graph.svg"
   inkscape:export-filename="/home/afabisch/Projekte/pytransform3d/doc/source/_static/transform_graph.png"
   inkscape:export-xdpi="300"
   inkscape:export-ydpi="300"
   xmlns:inkscape="http://www.inkscape.org/namespaces/inkscape"
   xmlns:sodipodi="http://sodipodi.sourceforge.net/DTD/sodipodi-0.dtd"
   xmlns="http://www.w3.org/2000/svg"
   xmlns:svg="http://www.w3.org/2000/svg">
  <sodipodi:namedview
     id="namedview7"
     pagecolor="#ffffff"
     bordercolor="#666666"
     borderopacity="1.0"
     inkscape:pageshadow="2"
     inkscape:pageopacity="0.0"
     inkscape:pagecheckerboard="0"
     inkscape:document-units="mm"
     showgrid="false"
     inkscape:zoom="0.81134749"
     inkscape:cx="57.928323"
     inkscape:cy="225.55071"
     inkscape:window-width="1419"
     inkscape:window-height="849"
     inkscape:window-x="2118"
     inkscape:window-y="135"
     inkscape:window-maximized="0"
     inkscape:current-layer="layer1"
     fit-margin-top="0"
     fit-margin-left="0"
     fit-margin-right="0"
     fit-margin-bottom="0" />
  <defs
     id="defs2">
    <marker
       style="overflow:visible"
       id="marker10986"
       refX="0"
       refY="0"
       orient="auto"
       inkscape:stockid="Arrow1Lstart"
       inkscape:isstock="true">
      <path
         transform="matrix(0.8,0,0,0.8,10,0)"
         style="fill:context-stroke;fill-rule:evenodd;stroke:context-stroke;stroke-width:1pt"
         d="M 0,0 5,-5 -12.5,0 5,5 Z"
         id="path10984" />
    </marker>
    <marker
       style="overflow:visible"
       id="marker10896"
       refX="0"
       refY="0"
       orient="auto"
       inkscape:stockid="Arrow1Lend"
       inkscape:isstock="true">
      <path
         transform="matrix(-0.8,0,0,-0.8,-10,0)"
         style="fill:context-stroke;fill-rule:evenodd;stroke:context-stroke;stroke-width:1pt"
         d="M 0,0 5,-5 -12.5,0 5,5 Z"
         id="path10894" />
    </marker>
    <marker
       style="overflow:visible"
       id="marker9323"
       refX="0"
       refY="0"
       orient="auto"
       inkscape:stockid="Arrow1Lstart"
       inkscape:isstock="true">
      <path
         transform="matrix(0.8,0,0,0.8,10,0)"
         style="fill:context-stroke;fill-rule:evenodd;stroke:context-stroke;stroke-width:1pt"
         d="M 0,0 5,-5 -12.5,0 5,5 Z"
         id="path9321" />
    </marker>
    <marker
       style="overflow:visible"
       id="marker8706"
       refX="0"
       refY="0"
       orient="auto"
       inkscape:stockid="Arrow1Lstart"
       inkscape:isstock="true">
      <path
         transform="matrix(0.8,0,0,0.8,10,0)"
         style="fill:context-stroke;fill-rule:evenodd;stroke:context-stroke;stroke-width:1pt"
         d="M 0,0 5,-5 -12.5,0 5,5 Z"
         id="path8704" />
    </marker>
    <marker
       style="overflow:visible"
       id="Arrow1Lstart"
       refX="0"
       refY="0"
       orient="auto"
       inkscape:stockid="Arrow1Lstart"
       inkscape:isstock="true">
      <path
         transform="matrix(0.8,0,0,0.8,10,0)"
         style="fill:context-stroke;fill-rule:evenodd;stroke:context-stroke;stroke-width:1pt"
         d="M 0,0 5,-5 -12.5,0 5,5 Z"
         id="path5966" />
    </marker>
    <marker
       style="overflow:visible"
       id="Arrow1Lend"
       refX="0"
       refY="0"
       orient="auto"
       inkscape:stockid="Arrow1Lend"
       inkscape:isstock="true">
      <path
         transform="matrix(-0.8,0,0,-0.8,-10,0)"
         style="fill:context-stroke;fill-rule:evenodd;stroke:context-stroke;stroke-width:1pt"
         d="M 0,0 5,-5 -12.5,0 5,5 Z"
         id="path5969" />
    </marker>
    <marker
       style="overflow:visible"
       id="Arrow1Lend-5"
       refX="0"
       refY="0"
       orient="auto"
       inkscape:stockid="Arrow1Lend"
       inkscape:isstock="true">
      <path
         transform="matrix(-0.8,0,0,-0.8,-10,0)"
         style="fill:context-stroke;fill-rule:evenodd;stroke:context-stroke;stroke-width:1pt"
         d="M 0,0 5,-5 -12.5,0 5,5 Z"
         id="path5969-3" />
    </marker>
    <marker
       style="overflow:visible"
       id="Arrow1Lend-5-6"
       refX="0"
       refY="0"
       orient="auto"
       inkscape:stockid="Arrow1Lend"
       inkscape:isstock="true">
      <path
         transform="matrix(-0.8,0,0,-0.8,-10,0)"
         style="fill:context-stroke;fill-rule:evenodd;stroke:context-stroke;stroke-width:1pt"
         d="M 0,0 5,-5 -12.5,0 5,5 Z"
         id="path5969-3-2" />
    </marker>
    <marker
       style="overflow:visible"
       id="marker10986-1"
       refX="0"
       refY="0"
       orient="auto"
       inkscape:stockid="Arrow1Lstart"
       inkscape:isstock="true">
      <path
         transform="matrix(0.8,0,0,0.8,10,0)"
         style="fill:context-stroke;fill-rule:evenodd;stroke:context-stroke;stroke-width:1pt"
         d="M 0,0 5,-5 -12.5,0 5,5 Z"
         id="path10984-2" />
    </marker>
  </defs>
  <g
     inkscape:label="Layer 1"
     inkscape:groupmode="layer"
     id="layer1"
     transform="translate(-41.143081,-24.393627)">
    <circle
       style="fill:none;fill-opacity:1;stroke:#008900;stroke-width:0.960685;stroke-linejoin:round;stroke-miterlimit:4;stroke-dasharray:none;stroke-opacity:1"
       id="path846"
       cx="51.143082"
       cy="68.232841"
       r="9.5196581" />
    <circle
       style="fill:none;fill-opacity:1;stroke:#008900;stroke-width:0.960685;stroke-linejoin:round;stroke-miterlimit:4;stroke-dasharray:none;stroke-opacity:1"
       id="path846-3"
       cx="111.33987"
       cy="34.393627"
       r="9.5196581" />
    <circle
       style="fill:none;fill-opacity:1;stroke:#008900;stroke-width:0.960685;stroke-linejoin:round;stroke-miterlimit:4;stroke-dasharray:none;stroke-opacity:1"
       id="path846-6"
       cx="141.23146"
       cy="74.011368"
       r="9.5196581" />
    <circle
       style="fill:none;fill-opacity:1;stroke:#008900;stroke-width:0.960685;stroke-linejoin:round;stroke-miterlimit:4;stroke-dasharray:none;stroke-opacity:1"
       id="path846-7"
       cx="146.88712"
       cy="121.88452"
       r="9.5196581" />
    <path
       style="fill:none;stroke:#008900;stroke-width:0.4;stroke-linecap:butt;stroke-linejoin:miter;stroke-miterlimit:4;stroke-dasharray:none;stroke-opacity:1;marker-start:url(#Arrow1Lstart)"
       d="m 105.79256,41.99216 c 0,0 -5.01363,11.787155 -13.370702,17.437594 -14.754714,9.976053 -31.730229,9.836571 -31.730229,9.836571"
       id="path5713"
       sodipodi:nodetypes="csc" />
    <path
       style="fill:none;stroke:#008900;stroke-width:0.4;stroke-linecap:butt;stroke-linejoin:miter;stroke-miterlimit:4;stroke-dasharray:none;stroke-opacity:1;marker-start:url(#marker8706)"
       d="m 115.50405,43.136936 c 9.92048,20.053382 17.8365,6.703842 22.91394,21.270123"
       id="path5713-5"
       sodipodi:nodetypes="cc" />
    <path
       style="fill:none;stroke:#008900;stroke-width:0.4;stroke-linecap:butt;stroke-linejoin:miter;stroke-miterlimit:4;stroke-dasharray:none;stroke-opacity:1;marker-start:url(#marker9323)"
       d="m 140.7325,83.716512 c 0.95401,16.802188 6.57775,13.832481 5.68797,28.400358"
       id="path5713-5-9"
       sodipodi:nodetypes="cc" />
    <path
       style="fill:none;stroke:#890000;stroke-width:0.4;stroke-linecap:butt;stroke-linejoin:miter;stroke-miterlimit:4;stroke-dasharray:1.6, 1.6;stroke-dashoffset:0;stroke-opacity:1;marker-start:url(#marker10986)"
       d="M 137.84509,120.49961 C 105.65494,114.56623 59.817011,118.71162 51.240459,78.031709"
       id="path10529"
       sodipodi:nodetypes="cc" />
    <path
       style="fill:none;stroke:#890000;stroke-width:0.4;stroke-linecap:butt;stroke-linejoin:miter;stroke-miterlimit:4;stroke-dasharray:none;stroke-opacity:1;marker-start:url(#marker10986-1)"
       d="m 149.57301,112.23249 c 2.01065,-10.13144 -2.0392,-11.81414 -4.04051,-20.091587 -1.66882,-6.902251 0.56057,-10.724858 -1.74817,-22.23918 -4.20619,-20.977419 -13.74776,-15.059531 -18.7968,-21.215672 -5.31966,-6.486096 -2.18991,-12.505485 -14.5216,-12.532578 -13.161078,-0.02891 -8.84951,10.638392 -18.724055,17.95803 -10.652203,7.896087 -22.924836,8.529344 -31.371642,10.527103"
       id="path10529-7"
       sodipodi:nodetypes="csssssc" />
  </g>
</svg>
