<?xml version="1.0" encoding="UTF-8" standalone="no"?>
<svg
   xmlns:dc="http://purl.org/dc/elements/1.1/"
   xmlns:cc="http://creativecommons.org/ns#"
   xmlns:rdf="http://www.w3.org/1999/02/22-rdf-syntax-ns#"
   xmlns:svg="http://www.w3.org/2000/svg"
   xmlns="http://www.w3.org/2000/svg"
   xmlns:sodipodi="http://sodipodi.sourceforge.net/DTD/sodipodi-0.dtd"
   xmlns:inkscape="http://www.inkscape.org/namespaces/inkscape"
   width="19.649748mm"
   height="23.950159mm"
   viewBox="0 0 19.649748 23.950159"
   version="1.1"
   id="svg5251"
   inkscape:version="1.0.1 (3bc2e813f5, 2020-09-07)"
   sodipodi:docname="conventions_camera.svg"
   inkscape:export-filename="/home/afabisch/Projekte/pytransform3d/doc/source/_static/conventions_camera.png"
   inkscape:export-xdpi="300"
   inkscape:export-ydpi="300">
  <defs
     id="defs5245">
    <marker
       style="overflow:visible"
       id="Arrow2Lend"
       refX="0"
       refY="0"
       orient="auto"
       inkscape:stockid="Arrow2Lend"
       inkscape:isstock="true">
      <path
         transform="matrix(-1.1,0,0,-1.1,-1.1,0)"
         d="M 8.7185878,4.0337352 -2.2072895,0.01601326 8.7185884,-4.0017078 c -1.7454984,2.3720609 -1.7354408,5.6174519 -6e-7,8.035443 z"
         style="fill:#0000ff;fill-opacity:1;fill-rule:evenodd;stroke:#0000ff;stroke-width:0.625;stroke-linejoin:round;stroke-opacity:1"
         id="path1752" />
    </marker>
    <marker
       style="overflow:visible"
       id="Arrow1Mend"
       refX="0"
       refY="0"
       orient="auto"
       inkscape:stockid="Arrow1Mend"
       inkscape:isstock="true">
      <path
         transform="matrix(-0.4,0,0,-0.4,-4,0)"
         style="fill:#000000;fill-opacity:1;fill-rule:evenodd;stroke:#000000;stroke-width:1pt;stroke-opacity:1"
         d="M 0,0 5,-5 -12.5,0 5,5 Z"
         id="path1740" />
    </marker>
    <marker
       style="overflow:visible"
       id="Arrow2Lend-3"
       refX="0"
       refY="0"
       orient="auto"
       inkscape:stockid="Arrow2Lend"
       inkscape:isstock="true">
      <path
         transform="matrix(-1.1,0,0,-1.1,-1.1,0)"
         d="M 8.7185878,4.0337352 -2.2072895,0.01601326 8.7185884,-4.0017078 c -1.7454984,2.3720609 -1.7354408,5.6174519 -6e-7,8.035443 z"
         style="fill:#00ff00;fill-opacity:1;fill-rule:evenodd;stroke:#00ff00;stroke-width:0.625;stroke-linejoin:round;stroke-opacity:1"
         id="path1752-7" />
    </marker>
    <marker
       style="overflow:visible"
       id="Arrow2Lend-3-9"
       refX="0"
       refY="0"
       orient="auto"
       inkscape:stockid="Arrow2Lend"
       inkscape:isstock="true">
      <path
         transform="matrix(-1.1,0,0,-1.1,-1.1,0)"
         d="M 8.7185878,4.0337352 -2.2072895,0.01601326 8.7185884,-4.0017078 c -1.7454984,2.3720609 -1.7354408,5.6174519 -6e-7,8.035443 z"
         style="fill:#ff0000;fill-opacity:1;fill-rule:evenodd;stroke:#ff0000;stroke-width:0.625;stroke-linejoin:round;stroke-opacity:1"
         id="path1752-7-2" />
    </marker>
    <marker
       style="overflow:visible"
       id="marker5027"
       refX="0"
       refY="0"
       orient="auto"
       inkscape:stockid="Arrow1Sstart"
       inkscape:isstock="true">
      <path
         transform="matrix(0.2,0,0,0.2,1.2,0)"
         style="fill:#000000;fill-opacity:1;fill-rule:evenodd;stroke:#000000;stroke-width:1pt;stroke-opacity:1"
         d="M 0,0 5,-5 -12.5,0 5,5 Z"
         id="path5025" />
    </marker>
    <marker
       style="overflow:visible"
       id="marker5027-8"
       refX="0"
       refY="0"
       orient="auto"
       inkscape:stockid="Arrow1Sstart"
       inkscape:isstock="true">
      <path
         transform="matrix(0.2,0,0,0.2,1.2,0)"
         style="fill:#000000;fill-opacity:1;fill-rule:evenodd;stroke:#000000;stroke-width:1pt;stroke-opacity:1"
         d="M 0,0 5,-5 -12.5,0 5,5 Z"
         id="path5025-9" />
    </marker>
  </defs>
  <sodipodi:namedview
     id="base"
     pagecolor="#ffffff"
     bordercolor="#666666"
     borderopacity="1.0"
     inkscape:pageopacity="0.0"
     inkscape:pageshadow="2"
     inkscape:zoom="5.6"
     inkscape:cx="-10.592231"
     inkscape:cy="29.603151"
     inkscape:document-units="mm"
     inkscape:current-layer="g6518"
     inkscape:document-rotation="0"
     showgrid="false"
     inkscape:window-width="1920"
     inkscape:window-height="1015"
     inkscape:window-x="0"
     inkscape:window-y="0"
     inkscape:window-maximized="1"
     fit-margin-top="0"
     fit-margin-left="0"
     fit-margin-right="0"
     fit-margin-bottom="0" />
  <metadata
     id="metadata5248">
    <rdf:RDF>
      <cc:Work
         rdf:about="">
        <dc:format>image/svg+xml</dc:format>
        <dc:type
           rdf:resource="http://purl.org/dc/dcmitype/StillImage" />
        <dc:title />
      </cc:Work>
    </rdf:RDF>
  </metadata>
  <g
     inkscape:label="Layer 1"
     inkscape:groupmode="layer"
     id="layer1"
     transform="translate(-105.10796,-34.865464)">
    <g
       id="g1036"
       transform="translate(2.3604306,0.30121564)"
       inkscape:export-xdpi="300"
       inkscape:export-ydpi="300">
      <path
         style="fill:none;stroke:#00ff00;stroke-width:0.264999;stroke-linecap:butt;stroke-linejoin:miter;stroke-miterlimit:4;stroke-dasharray:none;stroke-opacity:1;marker-end:url(#Arrow2Lend-3)"
         d="m 115.41215,43.279557 -5.28653,14.810762"
         id="path5814-5"
         sodipodi:nodetypes="cc" />
      <path
         style="fill:none;stroke:#ff0000;stroke-width:0.264999;stroke-linecap:butt;stroke-linejoin:miter;stroke-miterlimit:4;stroke-dasharray:none;stroke-opacity:1;marker-end:url(#Arrow2Lend-3-9)"
         d="M 115.41215,43.279557 103.73718,38.203904"
         id="path5814-5-2"
         sodipodi:nodetypes="cc" />
      <path
         style="fill:none;stroke:#000000;stroke-width:0.25;stroke-linecap:butt;stroke-linejoin:miter;stroke-miterlimit:4;stroke-dasharray:none;stroke-opacity:1;marker-start:url(#marker5027)"
         d="m 108.72441,40.012008 c 0,0 0.18666,-0.785121 0.48029,-0.74723 0.43395,0.05591 0.44866,0.788571 0.40615,1.248228 -0.0299,0.32313 -0.24866,0.816139 -0.57231,0.787535 C 108.7688,41.276731 108.68326,40.57 108.68326,40.57"
         id="path2872"
         sodipodi:nodetypes="casac" />
      <path
         style="fill:none;stroke:#0000ff;stroke-width:0.265;stroke-linecap:butt;stroke-linejoin:miter;stroke-miterlimit:4;stroke-dasharray:none;stroke-opacity:1;marker-end:url(#Arrow2Lend)"
         d="M 115.41215,43.279557 104.81947,40.865421"
         id="path5814"
         sodipodi:nodetypes="cc" />
      <path
         style="fill:none;stroke:#000000;stroke-width:0.25;stroke-linecap:butt;stroke-linejoin:miter;stroke-miterlimit:4;stroke-dasharray:none;stroke-opacity:1;marker-start:url(#marker5027-8)"
         d="m 112.06961,51.528138 c 0,0 -0.79835,0.117908 -0.78603,0.413745 0.0181,0.437157 0.74673,0.515287 1.20834,0.512775 0.32451,-0.0018 0.83453,-0.177422 0.83416,-0.501931 -3.5e-4,-0.270787 -0.69701,-0.417232 -0.69701,-0.417232"
         id="path2872-7"
         sodipodi:nodetypes="casac" />
      <text
         xml:space="preserve"
         style="font-style:normal;font-variant:normal;font-weight:normal;font-stretch:normal;font-size:4.9389px;line-height:1;font-family:'CMU Bright';-inkscape-font-specification:'CMU Bright';letter-spacing:0px;word-spacing:0px;fill:#000000;fill-opacity:1;stroke:none;stroke-width:0.264583"
         x="107.90873"
         y="37.996784"
         id="text6347-3-9-2"><tspan
           sodipodi:role="line"
           id="tspan6345-6-1-7"
           x="107.90873"
           y="37.996784"
           style="stroke-width:0.264583">tilt</tspan></text>
      <text
         xml:space="preserve"
         style="font-style:normal;font-variant:normal;font-weight:normal;font-stretch:normal;font-size:4.9389px;line-height:1;font-family:'CMU Bright';-inkscape-font-specification:'CMU Bright';letter-spacing:0px;word-spacing:0px;fill:#000000;fill-opacity:1;stroke:none;stroke-width:0.264583"
         x="102.35242"
         y="52.404854"
         id="text6347-3-9-2-3"><tspan
           sodipodi:role="line"
           id="tspan6345-6-1-7-6"
           x="102.35242"
           y="52.404854"
           style="stroke-width:0.264583">pan</tspan></text>
    </g>
    <g
       id="g6518"
       transform="translate(-0.33277084,2.0340242)"
       style="opacity:0.5"
       inkscape:export-xdpi="300"
       inkscape:export-ydpi="300">
      <path
         id="path6446"
         style="opacity:1;fill:none;stroke:#000000;stroke-width:0.264999;stroke-miterlimit:4;stroke-dasharray:none;stroke-opacity:1"
         d="m 116.61751,41.868542 c -0.19201,0.521163 -0.45452,1.188209 -0.97938,1.188216 -0.52485,4e-6 -0.8814,-0.66464 -0.8814,-1.65653 0,-0.99189 0.75592,-1.882393 1.28078,-1.882387 0.95009,0.280041 0.82453,1.656969 0.58,2.350701 z"
         sodipodi:nodetypes="csscc" />
      <path
         style="fill:none;stroke:#000000;stroke-width:0.264583px;stroke-linecap:butt;stroke-linejoin:miter;stroke-opacity:1"
         d="m 115.47706,46.742704 c 0,0 -0.41936,0.385793 -0.0509,1.289444 1.24637,1.666766 4.80087,1.601138 6.00466,1.122393 0.9712,-0.388823 2.01472,-0.945024 2.27965,-1.897556 0.12048,-0.433191 -0.13999,-0.941494 -0.4423,-1.274326 -0.0642,-0.07071 -0.26049,-0.119499 -0.26049,-0.119499"
         id="path6449"
         sodipodi:nodetypes="cccaac" />
      <path
         style="fill:none;stroke:#000000;stroke-width:0.264583px;stroke-linecap:butt;stroke-linejoin:miter;stroke-opacity:1"
         d="m 120.63162,42.940726 c 0,0 -1.70743,0.989074 -2.15143,0.989074 -0.444,0 -2.81601,0.200813 -2.95368,0.137765 -0.13767,-0.06305 -1.09801,-0.375513 -1.40851,-0.629454 -0.3105,-0.253941 -0.56292,-1.356958 -0.56292,-1.720768 0,-0.36381 0.019,-1.575957 0.25401,-2.08712 0.23501,-0.511163 0.14164,-0.804264 0.69917,-1.128925 0.55753,-0.324661 1.73273,-0.222234 2.54125,-0.0975 0.80852,0.124734 1.61707,0.482723 2.2264,0.798812 0.60933,0.316089 1.76666,1.227202 2.70305,1.560824 0.93639,0.333622 2.37822,-0.180755 2.80628,0.455364 0.42806,0.636119 -0.0211,1.35562 -0.39258,1.713026 -0.37153,0.357406 -0.66447,-0.49422 -1.31257,0.247731 -0.6481,0.741951 0.24631,4.204296 -0.23653,4.569068 -0.48285,0.364772 -2.33261,1.091333 -3.20811,1.068587 -0.8755,-0.02275 -1.08159,-0.0063 -1.69046,-0.175729 -0.60887,-0.169433 -1.49573,-0.52166 -1.89381,-0.889808 -0.39808,-0.368148 -0.57412,-1.008969 -0.57412,-1.008969"
         id="path6451"
         sodipodi:nodetypes="czzzzzzzzzzzzzzzzc" />
      <path
         style="fill:none;stroke:#000000;stroke-width:0.264583px;stroke-linecap:butt;stroke-linejoin:miter;stroke-opacity:1"
         d="m 120.63162,42.940726 1.34734,-2.177293 v 0"
         id="path6453" />
      <path
         style="fill:none;stroke:#000000;stroke-width:0.264583px;stroke-linecap:butt;stroke-linejoin:miter;stroke-opacity:1"
         d="m 124.78524,41.218797 c 0,0 -1.56668,-1.603738 -2.59533,-1.927503 -1.02865,-0.323765 -2.25353,-0.855168 -2.77437,-0.949661 -0.52083,-0.09449 -4.43007,-0.0075 -4.43007,-0.0075"
         id="path6455"
         sodipodi:nodetypes="cssc" />
      <path
         style="fill:none;stroke:#000000;stroke-width:0.264583px;stroke-linecap:butt;stroke-linejoin:miter;stroke-opacity:1"
         d="m 115.64867,44.056265 -0.17161,2.686439"
         id="path6471" />
      <path
         style="fill:none;stroke:#000000;stroke-width:0.264583px;stroke-linecap:butt;stroke-linejoin:miter;stroke-opacity:1"
         d="m 120.63162,42.940726 c 0,0 0.62686,-0.06882 1.43052,0.163843 0.80366,0.232667 0.93531,0.19472 0.93531,0.19472"
         id="path6473" />
    </g>
  </g>
</svg>
